<?xml version="1.0" encoding="utf-8"?>

<!DOCTYPE svg PUBLIC "-//W3C//DTD SVG 1.1//EN" "http://www.w3.org/Graphics/SVG/1.1/DTD/svg11.dtd">
<svg version="1.1" id="Layer_1" xmlns="http://www.w3.org/2000/svg" xmlns:xlink="http://www.w3.org/1999/xlink" x="0px" y="0px"
	 viewBox="0 0 2654 515.5" enable-background="new 0 0 2654 515.5" xml:space="preserve">
<g>
	<g>
		<g>
			<path fill="none" stroke="#000000" stroke-width="5" stroke-linecap="round" stroke-linejoin="round" stroke-miterlimit="10" d="
				M47,307.713h96.708l14.038-42.115l13.258,42.115h14.038l6.239,19.498l15.598-268.287l23.397,378.254l12.478-129.464l33.536-0.78
				c0,0,28.076-38.995,59.273,0l48.354-0.78l16.378-40.555l13.258,38.995l13.258,1.56l5.459,20.277l17.938-261.268l22.617,372.014
				l11.699-131.024l38.215,1.56c1.388-0.126,26.489-39.153,57.713-0.78l90.469-0.78"/>
		</g>
	</g>
	<g>
		<g>
			<path fill="none" stroke="#000000" stroke-width="5" stroke-linecap="round" stroke-linejoin="round" stroke-miterlimit="10" d="
				M1983.076,306.316h96.708l14.038-42.115l13.258,42.115h14.039l6.24,19.498l15.598-268.287l23.397,378.254l12.478-129.464
				l33.536-0.78c0,0,28.076-38.995,59.273,0l48.354-0.78l16.378-40.555l13.258,38.995l13.258,1.56l5.459,20.277l17.938-261.268
				l22.617,372.014l11.699-131.024l38.215,1.56c1.387-0.126,26.489-39.153,57.713-0.78l90.469-0.78"/>
		</g>
	</g>
	<path fill="none" stroke="#000000" stroke-width="5" stroke-miterlimit="10" d="M1983.076,306.152V249.48
		c-4.832-0.014-9.664-0.02-14.489,0.007c-0.144,11.748,0.013,23.489-0.075,35.237c-5.242,0.055-10.491,0.048-15.725,0.021
		c-0.729-7.566-0.013-43.41-0.492-68.553c-10.935-0.126-9.608-0.513-13.6,3.082c-6.779,6.923-4.692,1.201-4.989,42.344
		c-2.479,0.3-7.408-0.225-10.381,5.823c-0.827,2.495-0.581,5.18-0.67,7.77c-1.381,0.116-2.768,0.232-4.121,0.355
		c-0.77-7.173-0.192-27.518-0.43-43.766c-3.991,0.191-8.994-1.278-12.008,2.153c-3.376,3.356-1.62,8.604-2.016,12.828
		c-3.902,0.062-7.797,0.062-11.686,0.021c0.663-2.864,1.49-5.837,0.793-8.768c-2.734-11.212-1.024-3.972-1.613-30.015
		c-1.504-0.13-2.987-0.246-4.463-0.369c-0.137-1.325-0.253-2.645-0.362-3.964c-2.31,0-4.62,0-6.916,0.007
		c-0.089,1.736-0.171,3.472-0.24,5.214c-1.298-0.007-2.59-0.014-3.854-0.014c-0.464-2.153-0.922-4.298-1.36-6.444
		c2.863-1.907,5.973-3.875,7.49-7.114c2.987-5.802,1.134-13.784-4.49-17.27c-2.829-1.62-5.871-2.836-8.604-4.613
		c-1.818,0.929-3.622,1.879-5.413,2.836c-12.882-18.727-16.297-17.414-16.252-21.855c-0.523-7.758-2.669-11.196-13.75-16.17
		c-2.987,1.141-5.816,4.702-9.24,2.823c-6.657-3.11-13.579-5.72-20.81-7.094c-12.805-2.744-1.922-1.323-18.425-8.966
		c-12.542,5.506-9.139,7.225-16.361,8.092c-9.055,1.223-17.741,4.292-26.017,8.071c-2.289-1.196-4.538-2.993-7.244-2.891
		c-4.811,0.342-9.862,2.358-12.465,6.636c-2.214,3.178-2.132,7.189-2.098,10.893c-5.993,5.741-11.358,12.083-16.081,18.91
		c-1.626-0.321-3.396-1.319-4.989-0.396c-2.877,1.401-5.85,2.692-8.447,4.579c-4.429,3.642-5.905,10.278-3.677,15.527
		c1.1,2.747,3.369,4.743,5.447,6.752c-1.627,6.854-2.645,13.839-3.096,20.871c-1.182,0.492-2.426,0.854-3.492,1.552
		c-0.3,0.984-0.437,2.009-0.601,3.028c-6.293,2.091-6.371,1.942-11.126,7.545c-1.763,0.075-3.52,0.15-5.269,0.232
		c-0.082,5.679-0.007,11.365-0.055,17.051c-4.941,0.055-9.875,0.027-14.817,0.123c-0.335,8.105-0.034,16.224-0.164,24.336
		c-6.171,0.041-12.335,0.062-18.5-0.082c-0.185-2.351-0.061-4.811-0.909-7.046c-2.132-3.677-6.308-5.659-8.358-9.383
		c-0.854-3.233-0.396-6.616-0.431-9.916c-4.654-0.069-9.301-0.069-13.948,0.007c-0.11,4.285,0.171,8.577-0.014,12.862
		c-0.007,4.647-5.317,8.303-9.67,6.567c-1.999-1.021-7.277-5.941-7.395-8.597c-0.315-3.936,0.007-7.887-0.096-11.823
		c-2.515-0.082-5.023-0.15-7.525-0.226c-0.513-9.649-0.082-19.32-0.239-28.977c-5.358-0.068-10.716-0.075-16.074,0.021
		c-0.068,21.794,0.123,43.595-0.089,65.389c-4.305,0.048-8.604,0.048-12.896-0.007c-0.116-8.604,0.151-17.215-0.048-25.812
		c0.219-4.818-6.424-6.124-6.219-10.88c-0.53-9.763,2.217-19.502-4.873-20.284c-3.239-0.41-6.506-0.144-9.745-0.116
		c0.651,40.549,0.684,35.309-6.554,41.852c-0.198-6.267-0.034-12.54-0.123-18.807c-1.859-0.157-3.711-0.308-5.556-0.465
		c-0.102-1.804-0.192-3.608-0.28-5.399c-3.458-0.062-6.909-0.068-10.354-0.007c-0.232,1.497-0.458,2.993-0.677,4.504
		c-1.961,0.095-3.922,0.171-5.87,0.273c-0.417,11.7,0.171,23.414-0.383,35.114c-4.394,0.082-8.796,0.089-13.183,0.034
		c-0.219-14.256-0.014-28.512-0.096-42.768c-1.866-0.315-3.889-0.233-5.57-1.162c-3.841-2.713-6.226-7.087-10.258-9.54
		c-3.37-1.107-6.999-0.485-10.47-0.478c-0.137,1.647-0.26,3.294-0.383,4.955c-2.679,0.082-5.351,0.157-8.023,0.219
		c-0.055,2.651-0.096,5.303-0.137,7.962c-3.725-0.219-7.456-0.232-11.174,0c-0.143,1.968-0.253,3.95-0.383,5.932
		c-1.982,0.123-3.957,0.233-5.925,0.362c-0.26,11.53,0.027,23.058-0.137,34.581c-5.269,0.027-10.532,0.034-15.787-0.034
		c-1.538-19.397,1.999-21.56-2.467-30.077c-1.546-2.727-0.853-5.26-0.97-17.133c-4.135-0.007-8.262-0.062-12.383-0.219
		c-0.205-39.44,0.116-78.886-0.157-118.319c-4.463,3.021-7.866,7.251-11.721,10.962c-4.182,4.244-8.474,8.379-12.684,12.589
		c-2.486,2.175-2.379-4.126-1.927,102.731c0.203,4.204-3.124,4.598-3.233,11.604c0.069,9.137,0.116,18.268,0.014,27.405
		c-7.195-0.167-6.103,0.317-10.565-4.032c-14.672-15.679-14.263-11.593-14.379-19.969c0.011-0.519,0.408-25.289-0.355-32.544
		c-1.401-0.123-2.795-0.232-4.182-0.335c-0.048-2.946-0.109-5.884-0.184-8.816c-1.531-0.205-3.055-0.403-4.579-0.608
		c0.027-3.806,0.021-7.62-0.021-11.426c-0.997-0.185-1.995-0.362-2.979-0.533c-0.028-3.724-0.13-7.449-0.342-11.16
		c-3.513-0.075-7.032,0-10.531,0.26c-0.041,3.766-0.089,7.524-0.171,11.29c-1.011,0.315-2.023,0.629-3.021,0.957
		c-0.062,3.376-0.13,6.752-0.225,10.128c-1.333,0.157-2.659,0.315-3.978,0.485c-0.136,14.967,0.021,29.941-0.068,44.914
		c-2.037,0.048-4.073,0.089-6.103,0.15c-0.055,3.109-0.109,6.219-0.185,9.335c-10.981,1.553-5.219,1.427-16.983,11.344
		c-0.219-16.907-0.007-33.822-0.102-50.73c-1.49-0.109-2.98-0.212-4.463-0.308c-0.096-1.88-0.157-3.759-0.246-5.631
		c-3.738-0.028-7.469-0.02-11.201,0.027c-0.123,1.872-0.219,3.745-0.328,5.624c-1.654,0.062-3.301,0.13-4.934,0.205
		c-0.137,9.971,0.027,19.942-0.075,29.913c-3.807,0.116-7.614,0.13-11.413,0.068c-0.075-4.757-0.055-9.506-0.014-14.249
		c-2.966-0.082-5.925-0.116-8.884-0.103c-0.034,1.442-0.062,2.884-0.075,4.34c-1.675,0.089-3.342,0.177-5.003,0.273
		c-0.028,3.301-0.055,6.602-0.096,9.903c-18.265-0.051-15.225,1.37-20.871-4.018c-1.852-1.996-4.066-3.718-5.454-6.083
		c-1.018-2.7-0.301-5.741-1.251-8.44c-1.654-2.747-4.77-4.299-6.239-7.169c-0.656-2.091-0.615-4.305-0.793-6.458
		c-2.412-0.103-4.818-0.198-7.224-0.28c-0.116-1.688-0.225-3.369-0.335-5.044c-3.738-0.054-7.483-0.034-11.221,0.055
		c-0.089,1.661-0.178,3.321-0.26,4.989c-1.585,0.068-3.178,0.15-4.757,0.232c-0.157,9.595,0.574,19.19-0.13,28.779
		c-1.927,0.095-3.854,0.171-5.775,0.273c-0.364,14.384,2.522,11.537-11.331,23.899c-0.479-19.409,0.041-38.831-0.26-58.247
		c-4.764,0.041-9.534,0.014-14.283-0.253c-0.137-2.467-0.26-4.934-0.383-7.395c-18.196-0.6-19.492-0.211-21.049,1.346
		c-11.476,10.561-8.714,4.651-8.898,48.782c-2.501,0.048-5.05-0.198-7.504,0.383c-2.126,0.765-3.506,2.788-5.59,3.629
		c-1.661,0.417-3.376,0.451-5.071,0.595c0.02,4.032,0,8.057-0.062,12.09c-5.645,0.034-11.29,0.089-16.935-0.103
		c-0.3-8.27-0.041-16.545-0.191-24.822c-3.779,0-7.552-0.014-11.317-0.055c-0.198-25.437,0.151-50.887-0.171-76.324
		c-16.058,0.094-17.851-0.588-19.914,1.175c-6.967,5.767-4.42,5.166-4.907,29.489c-3.116,0.034-6.226-0.048-9.329-0.28
		c-0.116-23.141,0.164-46.281-0.137-69.414c-5.427,0-10.866,0.192-16.279-0.232c0.239-4.244,0.274-8.495-0.048-12.732
		c-2.262,1.551-4.395,3.294-6.267,5.303c-18.434,19.269-16.02,13.01-16.32,23.762c0.041,6.994,0.158,90.203-0.068,97.598
		c-3.916,0.157-7.839,0.192-11.755,0.116c-0.061-6.267,0.116-12.547-0.191-18.807c-1.148-0.226-2.29-0.451-3.424-0.656
		c-0.212-9.575,0.007-19.149-0.109-28.717c-2.173-0.082-4.339-0.151-6.506-0.239c-4.778-4.58-1.843-4.952-17.858-4.558
		c-4.34-0.021-7.573,4.469-7.313,8.584c0.027,11.891,0.116,23.789,0,35.681c-4.087,0.089-8.18,0.116-12.267,0.103
		c-0.355,6.335-0.102,12.684-0.212,19.026c-5.864,0.089-11.727,0.11-17.584-0.027c-0.062-27.664,0.048-55.336-0.055-83
		c-7.743-0.075-15.486-0.143-23.223,0.041c-0.082,2.208-0.164,4.422-0.239,6.636c-1.695,0.164-3.39,0.335-5.085,0.513
		c-0.021,27.514,0.075,55.028-0.041,82.543c-1.913,0.061-3.82,0.116-5.727,0.185c0.027,3.048-0.007,6.096-0.096,9.151
		c-4.067,0.103-8.126,0.116-12.192,0.068c-0.246-4.962-0.218-9.923-0.355-14.885c-1.64-0.089-3.28-0.171-4.921-0.246
		c-0.082-6.684,0.062-13.361-0.082-20.045c-1.866-0.075-3.731-0.144-5.59-0.212c-0.062-2.686-0.123-5.364-0.178-8.044
		c-1.784-0.13-3.567-0.246-5.344-0.369c-0.171-2.228-0.321-4.456-0.478-6.684c-4.374-0.253-8.755-0.246-13.128,0.048
		c-0.095,1.367-0.185,2.741-0.273,4.121c-2.754,0.068-5.508,0.143-8.256,0.226c-0.054,6.526,0.069,13.053-0.068,19.586
		c-3.069,0.014-6.137,0.007-9.206-0.021c-0.144-7.435,0.041-14.878-0.103-22.313c-3.553,0.034-7.141-0.301-10.668,0.212
		c-2.987,0.82-4.388,4.49-7.579,4.866c-3.602,0.355-7.231,0.075-10.846,0.15c0.021,12.37,0.151,24.733-0.048,37.103
		c-1.825,0.171-3.656,0.328-5.481,0.499c-0.082,1.995-0.136,3.998-0.212,6.007c-7.743,0.021-15.479,0.021-23.223,0
		c-0.157-14.434-0.007-28.867-0.061-43.301c-0.991-0.212-1.975-0.417-2.966-0.608c-0.157-1.934-0.294-3.861-0.458-5.782
		c-3.677-0.232-7.368-0.26-11.044-0.103c-0.103,1.763-0.198,3.526-0.301,5.303c-1.613,0.246-3.219,0.499-4.832,0.759
		c-0.103,1.695-0.205,3.397-0.301,5.105c-0.765,0.287-1.524,0.581-2.282,0.888c-0.376,12.588-0.048,25.184-0.198,37.779
		c-4.593,0.055-9.178,0.027-13.764-0.082c-0.26-5.091-0.198-10.183-0.205-15.274c-6.198-0.144-12.404,0.068-18.602-0.185
		c-0.301-18.48,0.048-36.966-0.178-55.452c-1.134-0.137-2.276-0.267-3.41-0.39c-0.13-1.456-0.253-2.911-0.376-4.36
		c-3.868-0.157-7.75-0.185-11.618-0.075c-0.116,1.634-0.239,3.274-0.355,4.921c-1.797,0.103-3.595,0.191-5.392,0.294
		c-0.171,11.748,0.028,23.503-0.089,35.257c-3.622,0.034-7.244,0.041-10.866,0.048c-0.164,11.727,0.157,23.469-0.232,35.196
		c-2.467,0.061-4.934,0.11-7.401,0.157c-0.465-14.919-0.027-29.844-0.226-44.763c-2.734-0.021-5.467-0.014-8.201,0.007
		c-0.294,1.346-0.581,2.7-0.868,4.053c-1.456,0.096-2.911,0.198-4.367,0.301c-0.11,13.409,0.075,26.81-0.096,40.219
		c-1.538,0.075-3.082,0.151-4.62,0.239v21.258 M2002.296,460.474 M690.144,460.474 M1948.22,262.348
		c-1.832-0.007-3.65-0.007-5.46-0.007c-0.013-1.825-0.021-3.649-0.007-5.474c1.811,0,3.643,0.007,5.474,0.013
		C1948.213,258.698,1948.213,260.523,1948.22,262.348z M1942.753,224.07c1.811-0.007,3.636,0,5.474,0.007
		c-0.013,1.818-0.013,3.636-0.006,5.46c-1.832-0.007-3.657-0.007-5.468,0C1942.739,227.706,1942.739,225.888,1942.753,224.07z
		 M1942.753,232.271c1.811-0.007,3.629-0.007,5.461-0.007c-0.007,1.818-0.007,3.643,0.007,5.474c-1.832-0.007-3.657-0.007-5.468,0
		C1942.739,235.914,1942.739,234.089,1942.753,232.271z M1942.76,240.472c1.811-0.007,3.629-0.007,5.467,0
		c-0.013,1.818-0.013,3.643-0.006,5.474c-1.838-0.014-3.663-0.02-5.481-0.02C1942.739,244.101,1942.746,242.283,1942.76,240.472z
		 M1948.22,248.673c-0.006,1.818-0.013,3.643-0.006,5.474c-1.825-0.007-3.643-0.007-5.454,0c-0.014-1.832-0.021-3.649-0.021-5.467
		C1944.557,248.673,1946.389,248.666,1948.22,248.673z M1877.138,284.21c-0.007-1.831,0-3.656,0.014-5.474
		c1.811,0,3.629,0,5.454,0.007c-0.007,1.818-0.007,3.643,0.007,5.467C1880.781,284.204,1878.956,284.204,1877.138,284.21z
		 M1882.613,276.01c-1.839-0.007-3.663-0.014-5.474-0.014c-0.007-1.818-0.007-3.636,0.007-5.447
		c1.811-0.007,3.636-0.014,5.468-0.007C1882.606,272.361,1882.606,274.185,1882.613,276.01z M1877.138,267.809
		c-0.007-1.831-0.007-3.656,0.007-5.474c1.811,0,3.636,0.007,5.468,0.014c-0.007,1.811-0.007,3.629,0.007,5.454
		C1880.781,267.802,1878.957,267.802,1877.138,267.809z M1877.152,243.212c-0.013-1.831-0.013-3.656-0.007-5.481
		c1.811,0,3.629,0,5.46,0.007c-0.007,1.811,0,3.636,0.014,5.46C1880.787,243.199,1878.97,243.206,1877.152,243.212z
		 M1882.62,251.399c-1.831,0-3.656,0.007-5.474,0.014c-0.007-1.831-0.007-3.656,0.007-5.481c1.811,0,3.629,0,5.454,0.007
		C1882.606,247.757,1882.606,249.575,1882.62,251.399z M1882.605,235.011c-1.831-0.007-3.649-0.014-5.46-0.014
		c-0.013-1.825-0.013-3.642-0.007-5.46c1.818-0.007,3.643-0.007,5.474,0C1882.599,231.355,1882.599,233.18,1882.605,235.011z
		 M1882.606,259.608c-1.831,0-3.649-0.007-5.46,0c-0.007-1.831-0.007-3.656,0.007-5.474c1.811,0,3.636,0.007,5.474,0.02
		C1882.606,255.965,1882.599,257.79,1882.606,259.608z M1877.138,213.149c1.811-0.014,3.636-0.02,5.467-0.02
		c-0.007,1.818,0,3.643,0.007,5.474c-1.832-0.007-3.656-0.007-5.474-0.007C1877.132,216.771,1877.132,214.96,1877.138,213.149z
		 M1877.145,221.336c1.818,0,3.643,0,5.481,0.007c-0.021,1.818-0.027,3.643-0.021,5.467c-1.831-0.007-3.649-0.007-5.454-0.007
		C1877.138,224.979,1877.131,223.154,1877.145,221.336z M1744.577,272.353c-3.8,0.007-7.586,0.007-11.372-0.027
		c-0.034-5.112-0.027-10.224,0-15.336c3.732-2.323,7.538-4.517,11.413-6.595C1744.7,257.708,1744.776,265.034,1744.577,272.353z
		 M1741.823,226.845c11.529-0.041,23.065-0.137,34.595,0.048c-3.595,2.511-27.361,16.086-29.865,17.454
		C1743.859,238.873,1742.315,232.914,1741.823,226.845z M1776.957,222.266c-3.882,0.672-34.649,0.415-35.162,0.41
		c0.389-6.315,1.954-12.534,4.77-18.206C1749.159,205.902,1773.727,219.944,1776.957,222.266z M1748.917,200.581
		c3.103-5.221,7.648-9.479,12.636-12.882c0.821,1.377,15.696,26.731,17.448,30.494
		C1775.12,216.247,1750.786,202.379,1748.917,200.581z M1758.942,246.773c1.483-0.171,3.581-0.724,4.654,0.656
		c0.212,1.053,0.191,2.16,0,3.233c-1.162,1.21-3.123,0.827-4.586,0.601C1757.76,250.279,1757.815,247.833,1758.942,246.773z
		 M1754.569,247.388c-1.613,0.075-3.226,0.144-4.825,0.198c1.552-1.073,3.151-2.085,4.771-3.055
		C1754.52,245.481,1754.541,246.431,1754.569,247.388z M1754.684,271.793c-1.032,1.366-3.109,0.827-4.558,0.663
		c-1.21-0.991-1.291-3.622,0.062-4.504c1.456-0.26,3.39-0.615,4.531,0.622C1754.896,269.627,1754.924,270.734,1754.684,271.793z
		 M1750.147,260.441c1.435-0.198,3.472-0.704,4.531,0.608c0.232,1.046,0.24,2.159,0.021,3.226c-1.066,1.366-3.137,0.82-4.606,0.663
		C1748.937,263.892,1748.849,261.384,1750.147,260.441z M1754.691,256.034c-0.656,1.175-2.2,0.847-3.301,0.888
		c-2.522,0.362-2.829-3.642-1.216-4.661c1.428-0.253,3.52-0.725,4.531,0.649C1754.924,253.922,1754.924,255.008,1754.691,256.034z
		 M1763.549,266.346c-0.676,1.141-2.214,0.772-3.301,0.827c-2.536,0.342-2.768-3.595-1.21-4.675c1.456-0.253,3.478-0.67,4.572,0.643
		C1763.801,264.187,1763.808,265.294,1763.549,266.346z M1762.872,259.471c-1.626,0.355-3.274-0.089-4.88-0.246
		c0.314-1.408-0.075-3.178,1.025-4.285c1.497-0.239,3.349-0.505,4.599,0.595C1763.637,256.805,1764.253,258.719,1762.872,259.471z
		 M1760.692,241.067c6.035-3.534,11.973-7.286,18.254-10.388c-3.315,6.731-7.34,13.073-11.112,19.545
		c-0.233-3-0.39-6.001-0.547-9.001C1765.079,241.176,1762.879,241.122,1760.692,241.067z M1767.478,272.271
		c-0.021-1.524-0.027-3.041-0.027-4.552c4.107,1.319,8.297,2.371,12.493,3.383C1777.301,272.715,1779.359,272.37,1767.478,272.271z
		 M1782.575,253.354c-2.858,6.446-2.969-0.851-3.178,14.673c-3.984-0.889-8.215-1.463-11.686-3.725
		c-0.943-3.124,0.198-6.335,1.913-8.953c4.476-7.319,8.426-14.967,13.101-22.163
		C1782.772,234.283,1783.132,251.175,1782.575,253.354z M1820.374,280.056c-2.994-1.668-4.128-5.085-5.83-7.846
		c-1.825-2.857-1.38-6.342-1.346-9.554c2.481-2.126,4.907-4.299,7.292-6.533C1820.511,264.098,1820.709,272.08,1820.374,280.056z
		 M1813.595,258.76c-1.261-9.198-8.795-8.062-11.543-8.201c-6.303-11.089-5.432-7.528-5.474-16.819
		c23.595,13.625,22.616,12.895,23.892,14.29C1821.584,252.964,1816.541,255.773,1813.595,258.76z M1828.63,247.976
		c-1.38,0-2.747,0.007-4.107,0.021c-0.014-1.374-0.014-2.747,0-4.107c1.353-0.007,2.719-0.007,4.101,0
		C1828.609,245.249,1828.616,246.609,1828.63,247.976z M1828.623,241.839c-1.381-0.007-2.755-0.014-4.115-0.014
		c0-1.367,0.007-2.734,0.021-4.094c1.353,0,2.713,0,4.094,0.007C1828.609,239.099,1828.609,240.466,1828.623,241.839z
		 M1824.523,250.033c1.353,0,2.719,0,4.101,0.014c-0.014,1.353-0.014,2.72,0,4.094c-1.374-0.007-2.741-0.007-4.094,0.007
		C1824.516,252.766,1824.509,251.4,1824.523,250.033z M1828.63,256.198c-0.021,1.36-0.027,2.727-0.021,4.107
		c-1.374-0.013-2.741-0.027-4.094-0.027c-0.007-1.367-0.007-2.734,0.007-4.094C1825.882,256.184,1827.25,256.19,1828.63,256.198z
		 M1824.523,278.743c-0.014-1.374-0.014-2.741,0-4.1c1.353-0.007,2.719-0.007,4.094-0.007c-0.007,1.367-0.007,2.733,0.007,4.107
		C1827.243,278.736,1825.876,278.736,1824.523,278.743z M1828.623,272.592c-1.38-0.007-2.747-0.007-4.107,0
		c-0.007-1.374-0.007-2.741,0.007-4.1c1.353-0.007,2.719-0.007,4.101,0C1828.609,269.852,1828.609,271.219,1828.623,272.592z
		 M1828.61,266.442c-1.367-0.007-2.727,0-4.073,0.007c-0.021-1.381-0.028-2.747-0.014-4.114c1.36,0,2.727,0.007,4.114,0.021
		C1828.616,263.715,1828.61,265.075,1828.61,266.442z M1829.204,232.783c-2.891,0.013-5.775,0.041-8.652,0.089
		c0,3.288-0.014,6.581-0.075,9.875c-6.95-3.752-13.647-7.941-20.571-11.734c-1.784-0.827-3.28-2.153-3.793-4.107
		c11.297-0.212,22.6-0.103,33.897-0.055C1829.743,228.826,1829.47,230.801,1829.204,232.783z M1792.983,222.143
		c4.271-2.98,8.925-5.337,13.395-8.003c6.164-3.519,12.226-7.23,18.486-10.579c2.953,5.966,4.784,12.458,5.16,19.115
		C1827.593,222.697,1799.164,223.013,1792.983,222.143z M1790.769,218.179c2.05-4.353,4.667-8.399,7.039-12.575
		c3.656-6.294,7.237-12.636,10.976-18.883c5.474,3.397,10.238,7.9,13.812,13.265
		C1821.089,200.869,1794.205,216.584,1790.769,218.179z M1830.68,278.743c-0.021-1.366-0.021-2.727-0.014-4.087
		c1.353-0.014,2.72-0.021,4.1-0.027c-0.013,1.366-0.007,2.733,0.014,4.107C1833.4,278.736,1832.033,278.736,1830.68,278.743z
		 M1830.68,260.298c-0.014-1.374-0.014-2.747,0-4.114c1.353,0,2.713,0,4.087,0.007c-0.007,1.36-0.007,2.72,0.014,4.094
		C1833.4,260.284,1832.033,260.291,1830.68,260.298z M1834.78,266.442c-1.38-0.007-2.754,0-4.107,0.007
		c-0.007-1.381-0.007-2.747,0.014-4.114c1.346-0.007,2.7-0.007,4.073,0.001C1834.753,263.695,1834.759,265.068,1834.78,266.442z
		 M1834.76,254.147c-1.367-0.007-2.727-0.007-4.073-0.007c-0.021-1.367-0.027-2.734-0.021-4.094
		c1.353-0.014,2.727-0.014,4.108-0.014C1834.753,251.4,1834.753,252.767,1834.76,254.147z M1834.773,268.485
		c-0.013,1.367-0.021,2.741-0.007,4.114c-1.38-0.014-2.747-0.02-4.1-0.02c-0.014-1.36-0.014-2.72,0-4.073
		C1832.026,268.492,1833.393,268.485,1834.773,268.485z M1834.76,247.996c-1.367-0.007-2.727-0.007-4.073,0
		c-0.021-1.374-0.027-2.74-0.021-4.107c1.36-0.007,2.727-0.007,4.115,0C1834.76,245.249,1834.753,246.616,1834.76,247.996z
		 M1830.673,237.738c1.353-0.007,2.719-0.007,4.1,0c-0.013,1.36-0.013,2.727-0.006,4.1c-1.374,0-2.734,0-4.087,0.007
		C1830.667,240.465,1830.667,239.098,1830.673,237.738z M1845.011,278.75c-2.05-0.007-4.1-0.007-6.137-0.007
		c-0.007-2.057-0.007-4.114,0.007-6.157c2.044,0,4.094,0,6.157,0.013C1845.018,274.649,1845.011,276.693,1845.011,278.75z
		 M1838.874,263.708c2.043-0.007,4.093-0.007,6.151,0c-0.007,2.044-0.007,4.094,0,6.151c-2.057,0-4.108,0-6.144,0.007
		C1838.868,267.809,1838.868,265.758,1838.874,263.708z M1847.731,285.331c-0.478-7.306-0.219-14.639-0.164-21.958
		c4.011,2.132,7.921,4.47,11.857,6.759C1856.09,275.579,1852.584,281.101,1847.731,285.331z M1872.86,274.65
		c-0.287-0.13-0.868-0.39-1.155-0.519c-1.196-2.187-3.198-3.663-5.351-4.798c2.365-4.989,4.648-10.019,6.39-15.268
		C1872.949,260.926,1873.045,267.788,1872.86,274.65z M1868.268,248.68c-0.984,6.308-3.978,12.165-6.807,17.837
		c-0.825-0.451-21.994-12.499-23.202-13.771c-0.547-6.561,0.041-13.176-0.239-19.75c-1.995-0.096-3.984-0.178-5.966-0.26
		c0.212-1.975,0.431-3.943,0.663-5.911c13.094-0.007,26.195-0.096,39.29,0.041c-0.711,4.107-4.907,6.424-5.468,10.6
		C1865.336,241.347,1867.297,245.017,1868.268,248.68z M1868.855,203.13c1.613,6.397,2.522,12.958,2.809,19.553
		c-12.964,0.041-25.922,0.034-38.879,0c-0.437-7.155-2.337-14.14-5.563-20.537c9.643-5.774,19.457-11.256,29.133-16.969
		C1854.787,194.346,1858.543,200.755,1868.855,203.13z M1844.601,161.928c5.331,5.139,10.012,10.928,13.928,17.215
		c-11.078,6.567-22.272,12.951-33.419,19.395c-4.073-5.624-9.076-10.524-14.905-14.297c4.101-7.245,8.324-14.413,12.479-21.623
		C1830.048,169.01,1837.323,169.277,1844.601,161.928z M1786.976,153.747c9.144-3.01,10.95-6.979,11.803-15.172
		c7.934,1.456,15.711,3.888,22.956,7.463c-6.764,18.586,7.825-3.044-15.165,36.214c-6.198-2.761-12.835-4.435-19.621-4.736
		C1786.928,169.589,1786.894,161.668,1786.976,153.747z M1786.969,180.277c6.253,0.369,12.527,1.647,18.131,4.538
		c-6.041,10.395-12.014,20.824-18.09,31.198C1786.86,204.101,1786.928,192.189,1786.969,180.277z M1788.828,219.976
		c0.205,0.806,0.465,1.64,0.704,2.46c-2.159,0.027-4.305,0.075-6.444,0.144c0,2.194,0,4.388,0.007,6.588
		c-0.574-0.095-1.709-0.294-2.276-0.396c-0.929-2.891-1.585-6.048,0.082-8.823C1783.484,219.061,1786.238,219.04,1788.828,219.976z
		 M1782.752,215.992c-5.891-10.183-11.925-20.291-17.618-30.59c5.542-2.7,11.522-4.429,17.659-5.044
		C1782.834,192.237,1782.916,204.115,1782.752,215.992z M1770.991,138.111c0.646,10.163,4.146,12.918,11.809,15.65
		c0.061,7.948,0.054,15.897,0.006,23.838c-6.663,0.615-13.135,2.487-19.115,5.474c-5.002-8.481-9.855-17.044-14.837-25.525
		c-1.64-3.834-0.622-8.262-2.303-12.144C1754.295,141.815,1762.557,139.423,1770.991,138.111z M1723.384,161.018
		c3.178,2.864,7.142,5.358,11.618,4.941c4.292-0.027,7.825-2.747,10.791-5.577c4.764,8.262,9.574,16.504,14.324,24.787
		c-5.378,3.916-10.224,8.597-13.839,14.215c-5.12-2.833-32.613-18.618-37-21.493C1713.283,171.727,1718.04,166.069,1723.384,161.018
		z M1698.187,203.103c12.133-0.536,17.004-8.295,15.233-17.926c10.169,5.98,20.448,11.796,30.617,17.789
		c-2.719,6.267-4.634,12.869-5.009,19.717c-14.549,0.034-29.099,0.041-43.656-0.007
		C1695.651,216.074,1696.567,209.506,1698.187,203.103z M1739.062,226.832c0.465,6.595,2.351,12.964,4.975,19.012
		c-3.567,2.139-7.162,4.237-10.812,6.226c-0.027-2.44-0.075-4.88-0.143-7.313c-3.861-0.007-7.716-0.007-11.563,0.041
		c-1.606,1.558-3,3.438-5.023,4.463c-3.568,0.677-7.237-0.239-10.798,0.417c-2.166,1.264-3.642,3.41-5.419,5.146
		c-0.752-2.665-2.262-5.549-0.916-8.276c4.883-11.07-3.508-14.505-4.367-19.682C1709.682,226.742,1724.375,226.804,1739.062,226.832
		z M1689.576,254.004c1.421-0.451,2.857-0.895,4.299-1.339c1.066,3.055,2.146,6.103,3.198,9.171
		c-2.495,0.021-4.975,0.021-7.456,0.007C1689.57,259.225,1689.556,256.614,1689.576,254.004z M1685.687,279.379
		c-1.196,1.196-3.143,0.786-4.64,0.601c-1.053-1.087-1.333-3.683,0.13-4.476c1.408-0.239,3.526-0.779,4.469,0.636
		C1685.906,277.185,1685.872,278.299,1685.687,279.379z M1684.409,273.215c-1.312,0.096-3.082,0.519-3.957-0.718
		c-0.103-1.23-0.731-3.165,0.69-3.827c1.442-0.294,3.431-0.677,4.538,0.581C1685.81,270.549,1686.343,273.221,1684.409,273.215z
		 M1684.942,259.416c-1.476,0.376-3.28,0.526-4.531-0.478c-0.068-1.298-0.622-3.13,0.691-3.964c1.442-0.191,3.513-0.718,4.552,0.635
		C1685.728,256.826,1686.418,258.828,1684.942,259.416z M1685.66,251.29c-0.669,1.189-2.262,0.786-3.369,0.841
		c-2.55,0.253-2.583-3.424-1.224-4.702c1.285-0.267,2.651-0.287,3.957,0.02C1686.22,248.297,1685.838,250.033,1685.66,251.29z
		 M1681.15,239.283c1.435-0.274,3.471-0.718,4.517,0.622c0.226,1.046,0.219,2.159,0.021,3.226c-1.141,1.237-3.102,0.841-4.572,0.608
		C1679.817,242.857,1679.885,240.007,1681.15,239.283z M1681.129,261.822c1.476-0.301,3.383-0.595,4.586,0.581
		c0.74,4.985-1.517,3.969-3.362,4.087C1679.831,266.845,1679.564,262.895,1681.129,261.822z M1676.864,266.312
		c-1.497,0.136-3.574,0.704-4.613-0.67c-0.143-1.244-0.677-3.124,0.711-3.827c1.415-0.212,3.472-0.718,4.49,0.622
		C1677.657,263.688,1677.978,265.376,1676.864,266.312z M1676.256,273.242c-1.34,0.062-3.144,0.478-4.032-0.772
		c-0.116-1.251-0.642-3.124,0.738-3.827c1.463-0.294,3.349-0.56,4.545,0.588C1677.603,270.563,1678.163,273.002,1676.256,273.242z
		 M1677.473,258.836c-0.732,1.079-2.228,0.786-3.321,0.827c-2.556,0.328-2.741-3.533-1.23-4.695
		c1.435-0.178,3.561-0.752,4.531,0.677C1677.705,256.676,1677.691,257.783,1677.473,258.836z M1672.949,239.249
		c1.456-0.26,3.404-0.608,4.545,0.615c0.184,1.052,0.198,2.166-0.027,3.226c-1.039,1.346-3.102,0.834-4.551,0.656
		C1671.671,242.782,1671.616,240.144,1672.949,239.249z M1672.928,247.464c1.462-0.274,3.41-0.629,4.565,0.587
		c0.185,1.073,0.198,2.194-0.041,3.274c-0.725,1.094-2.235,0.772-3.335,0.813C1671.609,252.48,1671.384,248.516,1672.928,247.464z
		 M1672.908,275.511c1.264-0.369,2.631-0.329,3.937-0.062c1.135,0.909,0.8,2.597,0.629,3.868c-1.073,1.326-3.096,0.848-4.552,0.649
		C1671.691,279.037,1671.589,276.358,1672.908,275.511z M1579.178,276.693c-1.374-0.007-2.741-0.007-4.094,0
		c-0.013-1.374-0.013-2.74-0.006-4.107c1.36,0,2.727,0.007,4.107,0.021C1579.171,273.959,1579.171,275.319,1579.178,276.693z
		 M1579.178,270.543c-1.38-0.007-2.747-0.007-4.1,0.007c-0.007-1.381-0.007-2.754,0.006-4.114c1.36,0,2.727,0.007,4.1,0.021
		C1579.171,267.809,1579.171,269.169,1579.178,270.543z M1579.171,223.38c-0.007,1.36,0,2.727,0.014,4.1
		c-1.374,0-2.741,0.007-4.094,0.02c-0.014-1.381-0.021-2.747-0.021-4.114C1576.43,223.38,1577.797,223.38,1579.171,223.38z
		 M1579.178,229.544c-0.007,1.36-0.007,2.727,0,4.094c-1.38-0.007-2.747-0.007-4.1,0c-0.007-1.374-0.007-2.747,0-4.107
		C1576.437,229.531,1577.804,229.537,1579.178,229.544z M1575.084,235.688c1.353-0.007,2.714-0.007,4.087-0.007
		c-0.007,1.36,0,2.727,0.014,4.1c-1.381-0.007-2.755-0.007-4.114,0.007C1575.063,238.415,1575.07,237.048,1575.084,235.688z
		 M1575.084,241.832c1.353,0,2.727,0.007,4.1,0.02c-0.014,1.36-0.02,2.72-0.014,4.094c-1.374-0.014-2.747-0.014-4.1-0.014
		C1575.063,244.559,1575.07,243.192,1575.084,241.832z M1575.084,247.989c1.353-0.007,2.72-0.007,4.093,0
		c-0.007,1.36-0.007,2.727,0,4.1c-1.38-0.007-2.747-0.013-4.107-0.007C1575.063,250.71,1575.07,249.349,1575.084,247.989z
		 M1575.084,254.133c1.353,0,2.727,0.007,4.1,0.02c-0.013,1.36-0.013,2.72-0.007,4.094c-1.38-0.014-2.747-0.02-4.107-0.02
		C1575.063,256.86,1575.07,255.493,1575.084,254.133z M1575.091,260.278c1.36,0.007,2.72,0.013,4.094,0.034
		c-0.007,1.353-0.013,2.706-0.007,4.073c-1.381-0.007-2.755-0.007-4.114,0C1575.064,263.011,1575.07,261.637,1575.091,260.278z
		 M1524.58,254.004c0.41,0.13,1.23,0.382,1.64,0.513c0.518,2.872,0.511,23.699,0,26.585c-3.528,3.696-2.095-8.133-2.453-21.48
		C1523.828,257.742,1523.534,255.678,1524.58,254.004z M1518.32,278.053c0.137-22.779-0.365-23.012,0.841-23.776
		c0.964-0.909,2.104,0.95,1.894,1.893c0.013,0.513,0.515,23.43-0.69,25.361C1518.272,281.887,1518.313,279.447,1518.32,278.053z
		 M1513.741,254.304l0.458-0.267c0.273,0.11,0.813,0.335,1.087,0.444c0.546,3.136,0.458,23.683,0.068,26.113
		c-0.198,1.585-2.488,0.964-2.331-0.465c-0.39-7.278,0.021-14.598-0.185-21.89C1513.05,256.963,1512.442,255.11,1513.741,254.304z
		 M1482.905,284.743c-1.312-1.073-0.513-3.068-0.738-4.538c1.859,0.185,5.645-1.1,5.488,1.934
		C1488.373,285.174,1484.962,285.359,1482.905,284.743z M1486.234,271.178c-1.306,0.062-3.171,0.54-3.971-0.779
		c-0.136-1.23-0.704-3.144,0.711-3.786c1.442-0.274,3.458-0.684,4.524,0.629C1487.628,268.595,1488.209,270.994,1486.234,271.178z
		 M1486.247,264.351c-1.339,0.109-3.055,0.431-4.018-0.731c-0.103-1.264-0.608-3.103,0.738-3.868
		c1.449-0.246,3.411-0.629,4.524,0.629C1487.648,261.733,1488.195,264.125,1486.247,264.351z M1482.967,244.067
		c1.244-0.301,2.57-0.376,3.834-0.042c1.251,0.793,0.84,2.577,0.683,3.827c-1.005,1.401-3.13,0.82-4.586,0.69
		C1481.682,247.587,1481.689,244.716,1482.967,244.067z M1482.912,252.24c1.462-0.225,3.492-0.676,4.586,0.635
		c0.205,1.039,0.212,2.139-0.027,3.192c-0.67,1.162-2.214,0.807-3.315,0.854C1481.641,257.27,1481.416,253.368,1482.912,252.24z
		 M1482.939,273.467c1.401-0.472,2.946-0.28,4.36,0.13c0.356,1.196,0.444,2.481,0.219,3.725c-1.196,1.148-3.089,0.868-4.552,0.574
		C1481.586,277.11,1481.73,274.212,1482.939,273.467z M1479.31,284.75c-1.49,0.198-3.479,0.649-4.593-0.622
		c-0.054-1.217-0.704-3.192,0.732-3.786c1.401-0.308,2.843-0.308,4.285-0.403C1479.686,281.49,1480.78,283.636,1479.31,284.75z
		 M1479.967,277.246c-1.039,1.374-3.11,0.841-4.572,0.683c-1.203-1.018-1.271-3.56,0.014-4.517c1.469-0.226,3.43-0.636,4.565,0.622
		C1480.178,275.08,1480.186,276.187,1479.967,277.246z M1475.436,244.046c1.442-0.232,3.506-0.697,4.538,0.656
		c0.178,1.251,0.492,2.932-0.635,3.841c-1.49,0.144-3.54,0.683-4.613-0.656C1474.616,246.636,1474.062,244.75,1475.436,244.046z
		 M1475.408,252.254c1.442-0.205,3.547-0.745,4.558,0.649c0.233,1.032,0.219,2.132-0.007,3.185c-1.196,1.401-3.485,0.882-5.03,0.417
		C1474.561,255.172,1474.008,253.129,1475.408,252.254z M1478.757,264.35c-1.339,0.089-3.089,0.458-4.039-0.724
		c-0.102-1.264-0.649-3.137,0.724-3.868c1.47-0.308,3.329-0.546,4.545,0.554C1480.076,261.651,1480.691,264.104,1478.757,264.35z
		 M1475.395,266.592c1.456-0.212,3.499-0.697,4.565,0.629c0.226,1.052,0.226,2.159,0.014,3.226c-0.745,1.093-2.255,0.806-3.376,0.82
		C1474.055,271.547,1473.932,267.767,1475.395,266.592z M1471.793,284.169c-1.203,1.155-3.11,0.82-4.593,0.588
		c-1.223-0.984-1.285-3.574,0.007-4.49c1.278-0.328,2.645-0.301,3.95-0.028C1472.279,281.197,1471.91,282.871,1471.793,284.169z
		 M1467.173,273.42c1.483-0.233,3.43-0.608,4.606,0.602c0.192,1.059,0.212,2.167-0.007,3.239c-0.71,1.114-2.228,0.806-3.342,0.847
		C1465.909,278.429,1465.718,274.615,1467.173,273.42z M1468.417,271.266c-2.514,0.362-2.74-3.629-1.175-4.675
		c1.442-0.225,3.472-0.683,4.517,0.642C1472.856,272.107,1470.018,271.186,1468.417,271.266z M1467.208,244.039
		c1.456-0.239,3.43-0.642,4.559,0.601c0.212,1.08,0.205,2.214,0.027,3.315c-1.223,1.175-3.157,0.772-4.668,0.595
		C1466.08,247.415,1465.882,244.996,1467.208,244.039z M1471.075,256.71c-1.489,0.301-3.396,0.574-4.579-0.581
		c-0.055-1.271-0.642-3.171,0.759-3.889c1.469-0.328,3.287-0.513,4.538,0.533C1471.799,254.038,1472.463,255.972,1471.075,256.71z
		 M1467.187,259.772c1.442-0.198,3.56-0.759,4.558,0.636c0.246,1.025,0.246,2.126,0.021,3.171c-0.697,1.155-2.241,0.827-3.362,0.861
		C1465.916,264.754,1465.69,260.893,1467.187,259.772z M1406.165,238.313c-1.087,1.333-3.13,0.827-4.613,0.663
		c-1.169-1.08-1.182-3.465,0-4.524c1.483-0.191,3.472-0.636,4.613,0.629C1406.37,236.133,1406.376,237.247,1406.165,238.313z
		 M1402.802,207.026c-2.563,0.267-2.61-3.403-1.257-4.716c1.483-0.157,3.465-0.608,4.62,0.649
		C1407.105,207.858,1404.603,206.948,1402.802,207.026z M1406.172,217.12c-0.731,1.1-2.235,0.82-3.349,0.847
		c-2.57,0.274-2.624-3.355-1.306-4.702c1.469-0.116,3.595-0.738,4.613,0.677C1406.391,214.967,1406.377,216.068,1406.172,217.12z
		 M1404.915,196.009c-1.333,0.116-3.055,0.431-4.012-0.724c-0.144-1.278-0.52-2.993,0.663-3.882
		c1.435-0.109,3.649-0.792,4.552,0.704C1406.384,193.432,1406.828,195.797,1404.915,196.009z M1405.441,164.456
		c-1.469,0.267-3.383,0.587-4.531-0.588c-0.083-1.264-0.663-3.144,0.71-3.882c1.483-0.314,3.349-0.54,4.579,0.574
		C1406.22,161.818,1406.829,163.732,1405.441,164.456z M1406.165,174.742c-0.704,1.121-2.214,0.827-3.321,0.861
		c-2.556,0.335-2.768-3.54-1.23-4.695c1.435-0.178,3.526-0.725,4.531,0.663C1406.384,172.603,1406.384,173.696,1406.165,174.742z
		 M1401.579,149.025c1.483-0.218,3.424-0.595,4.593,0.622c0.191,1.059,0.212,2.173-0.014,3.239c-1.073,1.346-3.13,0.827-4.599,0.642
		C1400.343,152.51,1400.384,150.036,1401.579,149.025z M1401.552,138.808c1.292-0.328,2.659-0.308,3.977-0.042
		c1.121,0.902,0.82,2.57,0.636,3.827c-0.677,1.189-2.241,0.848-3.362,0.875C1400.267,143.755,1400.123,140.011,1401.552,138.808z
		 M1401.634,181.193c1.258-0.369,2.624-0.308,3.917-0.054c1.1,0.936,0.786,2.59,0.622,3.861c-1.087,1.339-3.13,0.847-4.606,0.642
		C1400.404,184.678,1400.253,181.992,1401.634,181.193z M1401.654,223.551c1.435-0.253,3.465-0.697,4.504,0.629
		c0.226,1.038,0.218,2.132,0.007,3.185c-1.059,1.353-3.116,0.861-4.579,0.642C1400.356,227.091,1400.281,224.35,1401.654,223.551z
		 M1355.038,232.271c0,1.36,0.013,2.727,0.027,4.1c-1.394-0.007-2.775-0.007-4.148,0c-0.007-1.366-0.013-2.733-0.007-4.087
		C1352.278,232.271,1353.652,232.264,1355.038,232.271z M1336.566,236.371c-1.374-0.007-2.747-0.007-4.107,0
		c0-1.374,0.007-2.74,0.021-4.107c1.353,0,2.714,0,4.087,0.007C1336.559,233.631,1336.559,234.998,1336.566,236.371z
		 M1342.717,236.372c-1.374-0.007-2.741-0.007-4.1-0.007c-0.007-1.367-0.007-2.734,0-4.094c1.36-0.007,2.727-0.007,4.1,0
		C1342.71,233.631,1342.71,234.998,1342.717,236.372z M1346.824,219.977c0.335-0.007,1.005-0.014,1.346-0.02
		c0.013,2.508,0.013,5.016,0.007,7.531c-0.335,0-1.005,0.007-1.339,0.007C1346.81,224.986,1346.804,222.478,1346.824,219.977z
		 M1348.868,232.271c-0.007,1.367-0.007,2.733,0,4.1c-1.374-0.007-2.741-0.007-4.1,0c-0.007-1.374-0.007-2.741,0-4.1
		C1346.127,232.264,1347.494,232.264,1348.868,232.271z M1345.437,219.949c0.013,2.515,0.013,5.03,0.007,7.552
		c-0.341-0.007-1.018-0.02-1.36-0.027c-0.014-2.501-0.014-4.996,0.007-7.483C1344.426,219.977,1345.102,219.956,1345.437,219.949z
		 M1342.738,209.001c0.335,0.013,1.011,0.054,1.353,0.068c0,2.494-0.007,4.989-0.027,7.49c-0.335,0-1.005-0.007-1.339-0.007
		C1342.703,214.031,1342.71,211.516,1342.738,209.001z M1341.364,219.97c0.335,0,0.998-0.007,1.333-0.007
		c0.021,2.501,0.027,5.009,0.021,7.51c-0.341,0.007-1.018,0.014-1.36,0.021C1341.337,224.979,1341.343,222.471,1341.364,219.97z
		 M1339.99,209.035h1.346c0.014,2.501,0.014,5.01,0,7.518h-1.339C1339.976,214.044,1339.97,211.536,1339.99,209.035z
		 M1338.63,219.97h1.34c0.013,2.495,0.013,5.003,0.007,7.504c-0.335,0.007-1.012,0.028-1.346,0.034
		C1338.609,224.993,1338.609,222.478,1338.63,219.97z M1337.263,209.028c0.335,0.007,1.005,0.007,1.34,0.007
		c0.013,2.508,0.013,5.009,0.007,7.524c-0.342-0.007-1.018-0.014-1.353-0.014C1337.236,214.038,1337.243,211.53,1337.263,209.028z
		 M1335.89,219.983c0.335-0.007,1.011-0.02,1.346-0.027c0.014,2.515,0.014,5.03,0,7.552c-0.335-0.007-1.005-0.028-1.339-0.034
		C1335.869,224.972,1335.869,222.478,1335.89,219.983z M1334.523,209.069c0.335-0.02,1.011-0.048,1.347-0.062
		c0.014,2.508,0.014,5.03,0,7.545h-1.353C1334.502,214.051,1334.502,211.557,1334.523,209.069z M1333.149,219.99
		c0.342-0.007,1.018-0.028,1.353-0.041c0.014,2.508,0.014,5.023,0,7.538c-0.335,0-1.005,0.007-1.333,0.007
		C1333.143,224.986,1333.135,222.492,1333.149,219.99z M1331.796,209.022c0.335,0.007,1.005,0.013,1.339,0.02
		c0.014,2.501,0.014,5.01,0,7.518c-0.335,0-1.005-0.007-1.339-0.007C1331.776,214.045,1331.776,211.53,1331.796,209.022z
		 M1330.422,219.977c0.335-0.007,1.011-0.014,1.346-0.02c0.014,2.508,0.014,5.023,0,7.545c-0.335-0.007-1.012-0.014-1.346-0.02
		C1330.402,224.979,1330.402,222.478,1330.422,219.977z M1327.696,219.963c0.335,0.007,1.005,0.007,1.339,0.007
		c0.014,2.487,0.021,4.989,0.014,7.483c-0.342,0.02-1.012,0.048-1.346,0.068C1327.675,225,1327.675,222.478,1327.696,219.963z
		 M1326.315,232.271c1.36-0.007,2.727-0.007,4.1,0c-0.007,1.366-0.007,2.733,0,4.107c-1.374-0.014-2.747-0.021-4.107-0.021
		C1326.301,234.991,1326.309,233.624,1326.315,232.271z M1300.332,258.247c-1.141-0.007-2.269-0.013-3.397-0.007
		c-0.014-2.282-0.014-4.558,0-6.834c1.128-0.014,2.262-0.014,3.403-0.007C1300.339,253.682,1300.339,255.965,1300.332,258.247z
		 M1296.942,240.458c1.121,0,2.255,0.007,3.403,0.02c0,2.276,0,4.552-0.007,6.834c-1.141-0.013-2.282-0.013-3.41-0.007
		C1296.922,245.017,1296.922,242.741,1296.942,240.458z M1292.151,240.472c1.128-0.007,2.262-0.007,3.403,0.001
		c0.007,2.269,0.007,4.552,0.007,6.834c-1.148-0.007-2.282-0.007-3.41,0.007C1292.137,245.024,1292.137,242.748,1292.151,240.472z
		 M1292.151,251.413c1.128-0.013,2.262-0.013,3.403-0.014c0.007,2.282,0.007,4.565,0,6.854c-1.148-0.021-2.283-0.027-3.417-0.027
		C1292.131,255.951,1292.137,253.682,1292.151,251.413z M1287.367,240.472c1.128-0.014,2.255-0.014,3.396-0.007
		c0.007,2.276,0.014,4.552,0.014,6.834c-1.141,0-2.282,0-3.41,0.007C1287.354,245.024,1287.354,242.748,1287.367,240.472z
		 M1287.367,251.407c1.128-0.014,2.262-0.014,3.403-0.007c0,2.282,0,4.565-0.007,6.848c-1.141-0.007-2.276-0.013-3.397-0.007
		C1287.354,255.958,1287.354,253.682,1287.367,251.407z M1285.98,240.465c0.014,2.276,0.014,4.552,0.014,6.841
		c-1.141-0.007-2.276,0-3.403,0.014c-0.014-2.29-0.021-4.565-0.014-6.848C1283.704,240.465,1284.839,240.458,1285.98,240.465z
		 M1282.59,251.4c1.121-0.007,2.255-0.007,3.397,0.007c0.007,2.276,0.007,4.552,0.007,6.834c-1.148-0.007-2.283-0.007-3.417,0
		C1282.57,255.958,1282.57,253.676,1282.59,251.4z M1222.443,245.256c1.128-0.014,2.262-0.014,3.397-0.007
		c0.013,2.276,0.013,4.559,0.007,6.841c-1.141-0.007-2.269,0-3.397,0.014C1222.436,249.814,1222.429,247.532,1222.443,245.256z
		 M1221.056,245.243c0.007,2.276,0.014,4.552,0.021,6.834c-1.148,0-2.283,0.007-3.417,0.02c-0.013-2.276-0.013-4.552-0.007-6.827
		C1218.78,245.249,1219.915,245.242,1221.056,245.243z M1212.882,245.249c1.121-0.007,2.255,0,3.397,0.007
		c0.007,2.276,0.007,4.552,0.007,6.834c-1.148-0.007-2.283-0.007-3.417,0C1212.862,249.807,1212.862,247.525,1212.882,245.249z
		 M1208.085,245.256c1.134-0.007,2.269-0.007,3.417-0.001c0,2.276,0,4.559-0.007,6.841c-1.141-0.007-2.276-0.013-3.397-0.007
		C1208.078,249.807,1208.078,247.532,1208.085,245.256z M1203.314,245.242c1.121,0,2.255,0,3.397,0.014
		c0.007,2.276,0.007,4.552,0,6.834c-1.142-0.007-2.276-0.007-3.403,0.007C1203.294,249.807,1203.301,247.525,1203.314,245.242z
		 M1198.524,245.249c1.128-0.007,2.262,0,3.403,0.007c0.007,2.276,0,4.559-0.007,6.841c-1.141-0.007-2.269-0.007-3.397-0.007
		C1198.51,249.807,1198.51,247.525,1198.524,245.249z M1166.998,270.494c-1.448,1.264-3.608,0.485-5.358,0.656
		c0.089-1.627,0.191-3.253,0.307-4.873c1.626,0.308,3.704-0.308,5.009,0.936C1167.176,268.28,1167.176,269.401,1166.998,270.494z
		 M1173.224,271.191c-1.388,0.068-3.862,0.608-4.073-1.367c-0.034-1.073-0.458-2.645,0.765-3.205
		c1.476-0.314,3.397-0.608,4.593,0.56C1174.632,268.526,1175.186,270.986,1173.224,271.191z M1169.889,252.897
		c1.511-0.253,3.369-0.506,4.634,0.588c0.041,1.271,0.574,3.089-0.711,3.93c-1.435,0.355-2.959,0.232-4.36-0.157
		C1169.075,255.869,1168.59,253.922,1169.889,252.897z M1169.944,259.751c1.469-0.253,3.41-0.615,4.552,0.615
		c0.198,1.059,0.205,2.166,0.007,3.246c-1.135,1.271-3.116,0.841-4.606,0.649C1168.72,263.237,1168.625,260.667,1169.944,259.751z
		 M1166.991,263.66c-1.333,1.264-3.452,0.813-5.057,0.417c-0.376-1.38-0.861-3.328,0.451-4.347c1.285-0.273,2.638-0.287,3.93,0.021
		C1167.531,260.619,1167.087,262.375,1166.991,263.66z M1162.392,252.917c1.387-0.301,2.952-0.403,4.285,0.219
		c0.683,1.073,0.458,2.467,0.307,3.677c-0.991,1.093-2.658,0.827-3.964,0.718C1160.957,257.291,1161.12,253.936,1162.392,252.917z
		 M1154.444,230.05c1.442,0.089,2.911,0.103,4.346,0.396c1.285,0.752,0.772,2.549,0.656,3.766c-1.087,1.312-3.096,0.841-4.565,0.656
		C1153.398,233.74,1154.471,231.601,1154.444,230.05z M1154.915,237.205c1.469-0.273,3.396-0.601,4.558,0.608
		c0.834,4.941-1.54,3.963-3.39,4.066C1153.562,242.208,1153.371,238.278,1154.915,237.205z M1154.867,252.924
		c1.456-0.205,3.52-0.711,4.565,0.642c0.239,1.046,0.225,2.146,0.034,3.212c-1.128,1.278-3.116,0.847-4.599,0.636
		C1153.664,256.416,1153.61,253.881,1154.867,252.924z M1154.867,244.046c1.483-0.26,3.424-0.622,4.606,0.588
		c0.177,1.066,0.198,2.187-0.034,3.267c-1.1,1.312-3.137,0.786-4.62,0.656C1153.74,247.436,1153.589,245.044,1154.867,244.046z
		 M1154.902,259.778c1.442-0.259,3.458-0.697,4.545,0.601c0.218,1.046,0.225,2.153,0.007,3.219
		c-1.066,1.326-3.096,0.834-4.558,0.649C1153.651,263.319,1153.576,260.626,1154.902,259.778z M1154.936,266.626
		c1.435-0.273,3.417-0.71,4.497,0.574c0.233,1.059,0.233,2.173,0.034,3.253c-0.95,1.169-2.679,0.841-3.984,0.731
		C1153.378,271.027,1153.638,267.364,1154.936,266.626z M1151.922,247.86c-1.025,1.367-3.103,0.847-4.558,0.683
		c-1.497-1.107-0.396-3.273-0.431-4.825c1.627,0.294,3.663-0.26,5.003,0.923C1152.133,245.693,1152.161,246.8,1151.922,247.86z
		 M1151.239,241.689c-1.463,0.198-3.506,0.69-4.545-0.642c-0.212-1.285-0.485-2.946,0.622-3.895
		c1.647-0.253,3.307,0.082,4.955,0.273C1151.888,238.784,1152.462,240.691,1151.239,241.689z M1151.935,231.007
		c0.103,1.244,0.628,3.096-0.711,3.848c-1.243,0.308-2.563,0.308-3.8,0.021c-1.244-0.998-0.718-2.905-1.087-4.278
		C1148.142,230.57,1150.541,229.428,1151.935,231.007z M1139.887,230.378c1.257-0.253,2.59-0.349,3.848,0
		c1.306,0.786,0.772,2.61,0.697,3.882c-1.189,1.216-3.151,0.8-4.654,0.615C1138.657,233.843,1138.623,231.013,1139.887,230.378z
		 M1139.853,237.199c1.456-0.191,3.52-0.697,4.565,0.657c0.225,1.038,0.219,2.146-0.007,3.205c-0.745,1.087-2.249,0.8-3.376,0.827
		C1138.506,242.174,1138.383,238.353,1139.853,237.199z M1144.37,244.716c0.302,2.153,1.135,5.035-4.504,3.827
		c-1.155-1.059-0.697-2.891-1.052-4.264C1140.584,244.299,1143.168,242.987,1144.37,244.716z M1081.736,251.509
		c-1.811,0.998-4.196,0.725-6.185,0.383c-1.531-0.26-1.367-2.064-1.49-3.219c0.048-1.49-0.233-3.356,0.97-4.47
		c2.146-0.472,4.729-0.8,6.711,0.287C1082.74,246.568,1082.727,249.418,1081.736,251.509z M1075.052,231.232
		c2.126-0.506,4.702-0.793,6.67,0.267c1.094,2.003,0.759,4.572,0.301,6.739c-2.064,1.394-5.501,1.401-7.552,0.02
		C1074.033,236.037,1073.452,233.071,1075.052,231.232z M1075.052,190.939c2.194-0.513,5.092-0.998,6.957,0.54
		c0.403,2.18,1.052,5.215-0.615,6.964c-2.18,0.464-5.139,1.018-6.936-0.588C1074.054,195.681,1073.411,192.675,1075.052,190.939z
		 M1081.407,211.427c-2.187,0.472-5.132,1.011-6.95-0.574c-0.423-2.187-1.005-5.132,0.567-6.936c2.187-0.458,5.173-1.046,6.978,0.56
		C1082.426,206.65,1083.047,209.664,1081.407,211.427z M1075.018,217.564c2.194-0.417,5.187-1.046,6.985,0.601
		c0.478,2.201,0.95,5.037-0.533,6.944c-2.14,0.451-4.777,0.82-6.718-0.26C1073.781,222.689,1073.542,219.532,1075.018,217.564z
		 M1034.498,228.164c-4.552-0.123-9.13,0.328-13.661-0.198c-1.579-0.212-1.825-2.809-0.485-3.54
		c2.378-0.595,4.866-0.362,7.299-0.382c15.123,0.308,19.237-0.646,20.188,0.964C1050.642,229.379,1041.137,227.975,1034.498,228.164
		z M1046.178,239.673c-7.306,0.335-14.632-0.02-21.938,0.157c-1.571-0.233-4.011,0.458-4.681-1.47
		c-0.144-0.848-0.082-1.975,0.861-2.31c2.772-0.6,23.597-0.464,26.366-0.136C1048.911,236.228,1048.357,240.007,1046.178,239.673z
		 M1046.793,180.12c-2.679,0.328-23.23,0.337-25.942,0c-1.613-0.218-1.831-2.781-0.492-3.533c3.964-0.8,8.057-0.205,12.076-0.349
		c4.77,0.144,9.567-0.362,14.317,0.212C1048.617,176.641,1048.563,179.853,1046.793,180.12z M1046.807,191.725
		c-2.724,0.354-23.263,0.349-25.949,0.007c-1.647-0.233-1.825-2.788-0.478-3.54c3.738-0.752,7.599-0.219,11.392-0.341
		c5.01,0.151,10.053-0.341,15.042,0.219C1048.549,188.328,1048.604,191.485,1046.807,191.725z M1047.934,167.853
		c-1.666,1.513-4.925,0.594-21.623,0.902c-1.975-0.021-3.998,0.109-5.925-0.383c-1.251-0.69-1.155-2.686-0.007-3.438
		c3.978-0.724,8.057-0.191,12.083-0.314C1043.193,164.928,1049.565,163.168,1047.934,167.853z M1020.358,212.117
		c2.378-0.581,4.859-0.356,7.285-0.376c15.56,0.299,19.314-0.648,20.229,0.998c2.307,4.436-6.223,2.888-14.044,3.123
		c-4.333-0.13-8.7,0.355-13.005-0.226C1019.163,215.418,1019.081,212.897,1020.358,212.117z M1020.372,154.041
		c3.288-0.745,6.698-0.28,10.039-0.362c11.57,0.271,19.758-1.39,17.482,3.26c-0.998,0.984-2.563,0.718-3.834,0.868
		c-22.471,0.052-21.921,0.071-23.66-0.342C1019.224,156.741,1019.135,154.724,1020.372,154.041z M1020.365,199.816
		c2.153-0.547,4.415-0.369,6.622-0.382c16.485,0.342,19.969-0.655,20.824,0.964c0.896,1.189-0.041,3.253-1.62,3.055
		c-2.454,0.191-22.887,0.235-25.286-0.096C1019.224,203.192,1019.012,200.568,1020.365,199.816z M1020.44,248.366
		c3.014-0.759,6.178-0.301,9.26-0.383c5.508,0.137,11.024-0.246,16.525,0.137c2.194-0.335,2.645,3.451,0.547,3.752
		c-2.669,0.339-23.265,0.342-25.935,0.007C1019.265,251.687,1018.937,248.823,1020.44,248.366z M990.117,254.796
		c-0.014-1.346-0.014-2.692-0.014-4.025c1.339-0.014,2.679-0.027,4.026-0.028c0.007,1.339,0.014,2.686,0.02,4.039
		C992.803,254.782,991.457,254.782,990.117,254.796z M990.104,236.331c0.007-1.353,0.013-2.7,0.027-4.039
		c1.333,0,2.665,0,4.005,0.013c0,1.34,0,2.679,0.007,4.032C992.796,236.331,991.45,236.331,990.104,236.331z M994.143,242.481
		c-1.339,0-2.686,0.007-4.018,0.021c-0.007-1.36-0.013-2.706-0.007-4.053c1.333-0.007,2.672-0.007,4.018,0.007
		C994.136,239.789,994.136,241.135,994.143,242.481z M994.129,244.6c0.007,1.339,0.007,2.686,0.014,4.039
		c-1.339-0.007-2.679,0-4.019,0.007c-0.014-1.346-0.02-2.693-0.02-4.032C991.443,244.6,992.783,244.6,994.129,244.6z
		 M994.129,230.863c-1.339,0-2.672,0.007-4.005,0.021c-0.007-1.36-0.013-2.713-0.007-4.059c1.339,0.007,2.693,0.014,4.046,0.034
		C994.149,228.184,994.135,229.524,994.129,230.863z M994.15,224.72c-1.353-0.014-2.706-0.014-4.053-0.014
		c0-1.346,0.007-2.679,0.021-4.012c1.333-0.014,2.672-0.014,4.018-0.007C994.136,222.02,994.143,223.367,994.15,224.72z
		 M994.136,214.53v4.039c-1.339,0-2.672,0-4.005,0.014c-0.021-1.353-0.028-2.693-0.034-4.032
		C991.443,214.537,992.789,214.53,994.136,214.53z M975.697,232.319c-0.007,1.333-0.007,2.672-0.007,4.018
		c-1.346-0.014-2.692-0.014-4.039-0.014c-0.007-1.346-0.007-2.679,0-4.012C972.998,232.305,974.344,232.305,975.697,232.319z
		 M971.658,230.857c-0.007-1.346-0.007-2.686,0-4.018c1.346-0.007,2.693,0,4.039,0.007c-0.007,1.339-0.014,2.686-0.021,4.039
		C974.33,230.87,972.991,230.863,971.658,230.857z M975.697,238.463c-0.007,1.339-0.007,2.679-0.014,4.025
		c-1.346-0.007-2.686-0.007-4.025,0c-0.007-1.346-0.007-2.693-0.007-4.032C972.998,238.456,974.351,238.456,975.697,238.463z
		 M975.69,244.607c0,1.339-0.007,2.679,0,4.025c-1.346,0-2.686,0.007-4.018,0.021c-0.014-1.353-0.021-2.7-0.021-4.039
		C972.991,244.6,974.344,244.6,975.69,244.607z M981.834,254.79c-1.346-0.007-2.686,0-4.025,0.007c0-1.353,0-2.699,0.007-4.046
		c1.339-0.007,2.679,0,4.025,0.007C981.834,252.097,981.834,253.436,981.834,254.79z M987.979,242.495
		c-1.34-0.007-2.679-0.007-4.012,0c-0.007-1.36-0.007-2.706,0-4.053c1.346,0.007,2.693,0.013,4.046,0.034
		C987.992,239.81,987.985,241.149,987.979,242.495z M987.992,248.639c-1.346-0.007-2.693-0.007-4.032,0
		c0-1.353,0.007-2.7,0.014-4.039c1.333-0.007,2.672,0,4.012,0.007C987.985,245.946,987.985,247.286,987.992,248.639z
		 M987.971,236.358c-1.339-0.013-2.679-0.027-4.005-0.027c-0.014-1.346-0.014-2.686-0.014-4.018c1.346-0.007,2.7-0.007,4.053,0
		C987.992,233.652,987.978,234.998,987.971,236.358z M983.96,230.863c-0.007-1.346-0.007-2.679-0.007-4.012
		c1.339-0.021,2.679-0.027,4.018-0.027c0.007,1.339,0.021,2.686,0.034,4.046C986.652,230.863,985.299,230.857,983.96,230.863z
		 M983.96,214.543c1.34-0.014,2.679-0.014,4.026-0.014c0,1.339,0,2.686,0.007,4.039c-1.346-0.007-2.693-0.007-4.032-0.007
		C983.953,217.215,983.953,215.876,983.96,214.543z M983.987,220.667c1.333,0.007,2.672,0.013,4.012,0.034
		c-0.007,1.333-0.014,2.672-0.014,4.018c-1.353-0.007-2.7-0.007-4.039-0.007C983.953,223.359,983.967,222.013,983.987,220.667z
		 M987.971,250.737c0.007,1.339,0.021,2.692,0.027,4.046c-1.346,0-2.686,0-4.025,0.007c-0.013-1.339-0.027-2.679-0.027-4.005
		C985.286,250.757,986.625,250.744,987.971,250.737z M981.842,214.537c0,1.333,0,2.679,0.007,4.025
		c-1.346-0.007-2.693,0-4.032,0.007c-0.014-1.346-0.014-2.686-0.014-4.025C979.141,214.537,980.488,214.53,981.842,214.537z
		 M981.848,220.694c-0.007,1.34-0.014,2.679-0.014,4.032c-1.346-0.014-2.686-0.014-4.025-0.014c-0.007-1.346-0.007-2.686,0-4.018
		C979.149,220.687,980.495,220.687,981.848,220.694z M981.841,226.832c-0.007,1.346-0.007,2.692-0.007,4.046
		c-1.346-0.007-2.679-0.007-4.012,0c-0.014-1.353-0.02-2.693-0.02-4.032C979.141,226.831,980.488,226.831,981.841,226.832z
		 M981.834,232.298c0,1.339,0,2.686,0.007,4.039c-1.346-0.007-2.686-0.007-4.025,0c-0.007-1.346-0.014-2.686-0.014-4.025
		C979.141,232.298,980.488,232.298,981.834,232.298z M981.841,238.463c0,1.333-0.007,2.672-0.007,4.025
		c-1.346-0.007-2.686-0.007-4.025,0c-0.007-1.353-0.007-2.693,0-4.032C979.149,238.449,980.495,238.456,981.841,238.463z
		 M977.809,244.607c1.346,0,2.7,0.007,4.059,0.021c-0.021,1.333-0.034,2.672-0.041,4.018c-1.346-0.007-2.686-0.014-4.025-0.014
		C977.802,247.286,977.802,245.939,977.809,244.607z M975.677,254.797c-1.339-0.014-2.679-0.014-4.019-0.014
		c0-1.353,0-2.7,0.007-4.039c1.346,0.007,2.693,0.013,4.039,0.028C975.698,252.111,975.684,253.45,975.677,254.797z
		 M971.665,214.543c1.333-0.014,2.672-0.021,4.012-0.021v4.059c-1.339-0.007-2.679-0.021-4.019-0.021
		C971.659,217.215,971.659,215.876,971.665,214.543z M971.679,220.674c1.333,0,2.665,0.007,4.005,0.021
		c0,1.333,0.007,2.672,0.014,4.018c-1.353-0.007-2.706-0.007-4.053,0C971.651,223.359,971.658,222.013,971.679,220.674z
		 M931.091,191.164c0.519,0.123,1.551,0.382,2.064,0.505c0.458,15.575,0.069,31.164,0.198,46.739c0,47.51,0.9,49.47-2.057,48.481
		C929.953,283.628,930.6,194.706,931.091,191.164z M925.808,191.171c2.016-0.075,2.118,2.064,2.098,3.547
		c-0.07,95.227,0.364,89.816-0.724,92.172c-2.078,0.649-1.886-2.077-2.044-3.383C925.186,188.053,924.864,193.855,925.808,191.171z
		 M920.402,191.212c2.712-0.199,1.935,3.256,2.016,10.306c0.022,88.328,0.949,85.806-2.023,85.502
		c-0.587-1.305-0.724-2.747-0.745-4.148C919.883,189.215,919.173,194.13,920.402,191.212z M776.202,284.859
		c0-1.353,0.007-2.7,0.014-4.039c1.333-0.007,2.672,0,4.012,0.007c0.007,1.34,0.007,2.679,0.007,4.032
		C778.888,284.853,777.549,284.853,776.202,284.859z M776.195,272.551c0.007-1.346,0.007-2.693,0.014-4.032
		c1.34,0,2.686,0.007,4.032,0.021v4.012C778.888,272.545,777.542,272.545,776.195,272.551z M780.221,278.715
		c-1.34-0.007-2.679-0.013-4.012-0.007c-0.007-1.353-0.007-2.699-0.007-4.046c1.353,0.007,2.7,0.021,4.053,0.034
		C780.241,276.029,780.235,277.369,780.221,278.715z M780.207,244.587c0.014,1.339,0.027,2.692,0.041,4.046
		c-1.346,0-2.693,0-4.039,0.014c-0.007-1.353-0.007-2.693-0.007-4.032C777.535,244.6,778.868,244.586,780.207,244.587z
		 M776.209,250.751c1.346,0,2.686,0,4.032,0.014c-0.007,1.34-0.014,2.679-0.02,4.032c-1.339-0.014-2.686-0.014-4.025-0.014
		C776.202,253.43,776.202,252.083,776.209,250.751z M780.234,256.915v4.018c-1.339,0-2.686,0-4.025,0.014
		c0-1.36-0.007-2.706,0-4.046C777.549,256.901,778.895,256.901,780.234,256.915z M776.202,262.382
		c1.339-0.014,2.679-0.021,4.018-0.013c0.007,1.339,0.013,2.686,0.027,4.039c-1.353-0.014-2.706-0.014-4.059-0.014
		C776.196,265.054,776.196,263.715,776.202,262.382z M770.038,266.387c0.007-1.34,0.014-2.679,0.021-4.012
		c1.34-0.007,2.672-0.014,4.012-0.007c0.007,1.339,0.014,2.686,0.021,4.039C772.738,266.394,771.384,266.387,770.038,266.387z
		 M774.084,268.527c-0.007,1.339-0.007,2.692-0.014,4.046c-1.34-0.014-2.679-0.014-4.012-0.014
		c-0.007-1.353-0.007-2.693-0.007-4.032C771.398,268.519,772.738,268.519,774.084,268.527z M774.07,284.88
		c-1.339-0.021-2.679-0.028-4.025-0.034c0-1.339,0.007-2.679,0.007-4.005c1.339-0.021,2.679-0.028,4.018-0.034V284.88z
		 M774.07,278.716c-1.339-0.014-2.686-0.02-4.025-0.02c0-1.346,0.007-2.686,0.007-4.018c1.346,0,2.7,0,4.046,0.014
		C774.091,276.023,774.084,277.369,774.07,278.716z M774.077,260.934c-1.34,0-2.672,0-4.012,0.014
		c-0.013-1.353-0.021-2.693-0.027-4.032c1.353-0.007,2.706,0,4.06,0.007C774.091,258.254,774.083,259.594,774.077,260.934z
		 M770.052,244.62c1.339-0.014,2.679-0.027,4.026-0.027c0,1.346,0.007,2.692,0.007,4.046c-1.346-0.007-2.693-0.014-4.039-0.014
		C770.045,247.286,770.045,245.946,770.052,244.62z M774.091,250.757c-0.007,1.34-0.007,2.686-0.014,4.032
		c-1.34,0-2.672,0-4.012,0.007c-0.014-1.346-0.021-2.686-0.034-4.025C771.384,250.764,772.738,250.757,774.091,250.757z
		 M720.074,260.988c0.11-1.011-0.3-2.897,0.895-3.246c1.421-0.239,3.485-0.772,4.469,0.615c0.191,1.428,0.731,3.479-0.608,4.504
		C723.122,263.229,719.848,263.647,720.074,260.988z M720.969,250.894c1.449-0.308,3.335-0.615,4.497,0.533
		c0.151,1.49,0.663,3.52-0.642,4.634c-1.469,0.171-3.465,0.649-4.558-0.629C720.163,253.99,719.466,251.762,720.969,250.894z
		 M724.776,242.352c-1.422,0.396-2.973,0.314-4.36-0.185c-0.376-1.647-0.246-3.349-0.226-5.016c1.695,0.218,4.005-0.766,5.262,0.69
		C725.589,239.263,726.225,241.429,724.776,242.352z M720.894,216.703c1.456-0.171,3.567-0.751,4.552,0.67
		c0.212,1.435,0.69,3.465-0.636,4.511c-1.442,0.144-3.567,0.738-4.524-0.67C720.067,219.764,719.595,217.748,720.894,216.703z
		 M720.914,223.551c1.456-0.218,3.513-0.724,4.552,0.642c0.157,1.442,0.704,3.534-0.69,4.524c-1.456,0.205-3.444,0.629-4.517-0.636
		C720.121,226.626,719.534,224.528,720.914,223.551z M720.949,230.378c1.429-0.218,3.492-0.724,4.497,0.636
		c0.198,1.524,0.089,3.069,0.062,4.606c-1.695-0.239-3.977,0.71-5.235-0.711C720.128,233.467,719.507,231.3,720.949,230.378z
		 M720.921,244.053c1.442-0.212,3.513-0.738,4.524,0.622c0.178,1.442,0.731,3.533-0.656,4.531c-1.435,0.177-3.526,0.731-4.51-0.649
		C720.101,247.122,719.534,245.017,720.921,244.053z M720.908,264.535c1.483-0.226,3.438-0.629,4.572,0.622
		c0.26,1.298,0.26,2.659-0.041,3.957c-1.087,1.278-3.075,0.772-4.538,0.615C719.664,268.471,719.623,265.751,720.908,264.535z"/>
</g>
</svg>
